<svg width="26" height="26" viewBox="0 0 26 26" fill="none" xmlns="http://www.w3.org/2000/svg">
<g id="Group 158">
<path id="Vector 282" d="M2.64027 22.8118C1.51856 18.739 1.11194 13.5367 1.02103 10.999C1.00125 10.447 1.44772 10 2 10H24C24.5523 10 24.9987 10.447 24.979 10.999C24.8881 13.5367 24.4814 18.739 23.3597 22.8118C23.1484 23.5789 22.5906 24.1861 21.8123 24.3511C20.3322 24.6649 17.5373 25 13 25C8.46271 25 5.66781 24.6649 4.1877 24.3511C3.40936 24.1861 2.85154 23.5789 2.64027 22.8118Z" stroke="#313186" stroke-width="1.5" stroke-linecap="round" stroke-linejoin="round"/>
<path id="Vector 283" d="M6.00122 10V6C6.00122 3.23858 8.2398 1 11.0012 1H15.0012C17.7626 1 20.0012 3.23858 20.0012 6V10" stroke="#313186" stroke-width="1.5" stroke-linecap="round" stroke-linejoin="round"/>
<path id="Vector 284" d="M9.00049 16V19M17.0005 16V19" stroke="#313186" stroke-width="1.5" stroke-linecap="round" stroke-linejoin="round"/>
</g>
</svg>
