<svg width="24" height="24" viewBox="0 0 24 24" fill="none" xmlns="http://www.w3.org/2000/svg">
<g id="Frame" clip-path="url(#clip0_61_2209)">
<path id="Vector" d="M17.0807 2.46317C18.7228 2.46317 20.2386 3.34738 20.9965 4.73685C22.5123 7.64211 21.628 12.0632 18.4701 15.6C15.3123 19.2632 11.9017 21.2842 11.9017 21.2842C11.9017 21.2842 8.49121 19.2632 5.33332 15.7263C2.04911 12.0632 1.16489 7.64211 2.68069 4.73685C3.43858 3.34738 4.95437 2.46317 6.72279 2.46317C8.49121 2.46317 10.386 3.34738 11.9017 5.74738C13.4175 3.34738 15.4386 2.46317 17.0807 2.46317ZM17.0807 1.20001C15.1859 1.20001 13.4175 2.08422 11.9017 3.72633C10.386 2.08422 8.61753 1.20001 6.72279 1.20001C4.57542 1.20001 2.68069 2.33685 1.67016 4.23159C-0.22458 7.64211 0.912262 12.6947 4.44911 16.6105C7.73332 20.4 11.1438 22.421 11.3965 22.421L12.0281 22.8L12.6596 22.421C12.7859 22.2947 16.1965 20.2737 19.607 16.6105C23.1438 12.6947 24.1544 7.64211 22.3859 4.23159C21.2491 2.33685 19.228 1.20001 17.0807 1.20001Z" fill="#313186" stroke="#313186" stroke-width="0.666667"/>
</g>
<defs>
<clipPath id="clip0_61_2209">
<rect width="24" height="24" fill="white"/>
</clipPath>
</defs>
</svg>
