<svg width="16" height="16" viewBox="0 0 16 16" fill="none" xmlns="http://www.w3.org/2000/svg">
<g id="Vector">
<path id="Vector-31" fill-rule="evenodd" clip-rule="evenodd" d="M9.849 4.46812L8 0.953125L6.151 4.46812C6.02038 4.72499 5.83131 4.94762 5.599 5.11812C5.36556 5.2895 5.09543 5.4042 4.81 5.45312L1 6.20013L3.66 9.38113C4.02377 9.77981 4.19542 10.3174 4.13 10.8531L3.624 14.9531L7.132 13.2531C7.40262 13.1221 7.69931 13.0537 8 13.0531C8.28212 13.054 8.55991 13.1226 8.81 13.2531L12.4 14.8481L11.894 10.7971C11.83 10.2626 12.002 9.72668 12.365 9.32913L15 6.20013L11.19 5.45312C10.9042 5.40434 10.6337 5.28965 10.4 5.11812C10.1681 4.9475 9.97934 4.72488 9.849 4.46812Z" fill="#FFA500" stroke="#FFA500" stroke-width="1.5" stroke-linecap="round" stroke-linejoin="round"/>
</g>
</svg>
