<svg width="20" height="30" viewBox="0 0 20 30" fill="none" xmlns="http://www.w3.org/2000/svg">
<path d="M8.53479 0.0777281C5.07659 0.669726 2.29244 3.01427 1.1905 6.26147C0.721592 7.63889 0.721592 7.63889 0.698146 11.5191L0.674701 14.9832L0.469553 15.0183C0.211653 15.0711 0.0768415 15.2704 0.0827029 15.5986C0.0885642 15.7334 0.252682 17.1871 0.446108 18.8282C0.827096 22.0403 0.856403 22.1868 1.20809 22.4506C1.36634 22.5678 1.36634 22.5795 1.29014 22.7671C1.14947 23.107 1.18464 23.6053 1.37806 23.9921L1.54804 24.3262L1.3722 24.6544C1.21395 24.9534 1.20222 25.0296 1.21981 25.434C1.23739 25.815 1.2667 25.9205 1.43082 26.1843L1.61838 26.4949L1.51874 26.7762C1.42496 27.0459 1.42496 27.1045 1.5246 27.9544C1.66527 29.2087 1.84111 29.5663 2.46828 29.8593L2.76135 30H10.0001H17.2389L17.532 29.8593C18.1592 29.5663 18.335 29.2087 18.4757 27.9544C18.5753 27.1045 18.5753 27.0459 18.4815 26.7762L18.3819 26.4949L18.5695 26.1843C18.7336 25.9205 18.7629 25.815 18.7805 25.434C18.798 25.0296 18.7863 24.9534 18.6281 24.6544L18.4522 24.3262L18.6222 23.9921C18.8156 23.6053 18.8508 23.107 18.7101 22.7671C18.6339 22.5795 18.6339 22.5678 18.7922 22.4506C19.1439 22.1868 19.1732 22.0403 19.5542 18.8282C19.7476 17.1871 19.9117 15.7334 19.9176 15.5986C19.9234 15.2704 19.7886 15.0711 19.5307 15.0183L19.3256 14.9832L19.3021 11.5191C19.2845 8.19572 19.2787 8.02574 19.1497 7.46305C18.6808 5.35882 17.6844 3.63558 16.1546 2.29332C14.8065 1.10933 13.2356 0.376658 11.4069 0.0718667C10.7914 -0.0277765 9.14437 -0.0219151 8.53479 0.0777281ZM10.8207 1.04485C14.5427 1.43756 17.4499 4.15138 18.1826 7.93196C18.2588 8.31295 18.2822 9.03976 18.3057 11.695L18.335 14.9949H16.8052C15.9611 14.9949 15.2754 14.9715 15.2754 14.948C15.2754 14.7839 15.4453 14.7136 15.8732 14.6901C16.981 14.6198 17.7489 13.7875 17.7547 12.6386C17.7606 12.2401 17.7371 12.1404 17.5554 11.777L17.3503 11.3609L17.5554 10.9447C17.7371 10.5813 17.7606 10.4817 17.7547 10.0831C17.7547 9.49108 17.5906 9.0632 17.2213 8.67635C16.8286 8.26019 16.4125 8.06677 15.8439 8.0316L15.3867 8.00229L15.2695 7.7737C15.1112 7.46305 14.7537 7.11723 14.3844 6.9238C14.1031 6.77727 14.021 6.75968 13.4583 6.75968C12.9425 6.75968 12.8077 6.77727 12.6084 6.88277L12.374 7.01172V6.44317C12.3681 5.95082 12.3505 5.83945 12.204 5.54638C12.0106 5.14781 11.571 4.71993 11.1841 4.54995C11.0141 4.47375 10.7387 4.41514 10.4632 4.39755C10.0236 4.37411 10.0119 4.36825 9.91807 4.17482C9.76568 3.85245 9.38469 3.48318 9.02129 3.29562C8.71063 3.14322 8.62857 3.12564 8.09519 3.12564C7.56181 3.12564 7.47975 3.14322 7.16909 3.29562C6.80569 3.48318 6.4247 3.85245 6.2723 4.17482C6.17852 4.36825 6.17266 4.37411 5.72134 4.39755C4.23255 4.48548 3.37093 5.97426 4.01568 7.35168L4.19738 7.73853L4.01568 8.11366C3.66986 8.81702 3.72261 9.56142 4.16807 10.2179L4.42011 10.5813L3.99223 10.6165C3.42368 10.6575 3.00166 10.8626 2.62067 11.2729C2.21624 11.7184 2.06971 12.1228 2.09901 12.7383C2.11074 13.1251 2.15176 13.2775 2.30416 13.5882L2.49172 13.9633L2.35105 14.1978C2.27485 14.3326 2.18107 14.5612 2.14004 14.7136C2.07557 14.9832 2.06384 14.9949 1.87042 14.9949H1.66527L1.69458 11.695C1.72389 8.16055 1.72975 8.07263 2.05798 6.93553C2.25727 6.24388 2.80238 5.13023 3.26542 4.47961C4.98867 2.07059 7.90763 0.740062 10.8207 1.04485ZM8.65202 4.29205C8.89234 4.45031 9.12093 4.81371 9.12093 5.03058C9.12093 5.18298 9.22643 5.38813 9.34952 5.48191C9.47847 5.58155 9.71879 5.57569 10.0529 5.46432C10.3928 5.35296 10.7152 5.41743 10.9966 5.65189C11.5006 6.07977 11.4831 6.77141 10.9555 7.25204C10.6976 7.49236 10.6918 7.50994 10.7152 7.77956L10.7445 8.05505L10.469 8.15469C9.92394 8.34812 9.41986 8.86978 9.24402 9.43833C9.20299 9.55556 9.17368 9.81346 9.16782 10.0069L9.16196 10.3527H8.79855C8.59927 10.3527 8.3824 10.3644 8.32378 10.382C8.24172 10.4055 8.17139 10.3468 8.03658 10.1476C7.51491 9.35627 6.33678 9.08079 5.43413 9.53211L5.07072 9.71381L4.95936 9.52625C4.81282 9.29179 4.80696 8.84633 4.93591 8.58843C4.98867 8.48293 5.1352 8.30709 5.25829 8.19572C5.59825 7.88507 5.59239 7.60372 5.22312 7.24032C4.92419 6.94139 4.84213 6.76555 4.84213 6.40214C4.84213 6.08563 4.94764 5.8629 5.19381 5.65189C5.47516 5.41743 5.79753 5.35296 6.13749 5.46432C6.28989 5.51708 6.49504 5.55811 6.58296 5.55811C6.78811 5.55811 6.99911 5.3764 7.04601 5.15953C7.15737 4.61443 7.36838 4.32722 7.77281 4.15724C8.00141 4.0576 8.39412 4.12207 8.65202 4.29205ZM13.7631 7.78542C14.1207 7.88507 14.5134 8.43017 14.5134 8.82875C14.5134 8.9577 14.7947 9.19215 14.953 9.19215C15.0409 9.19215 15.2402 9.15112 15.3985 9.09837C15.6505 9.01631 15.7325 9.01045 15.9377 9.07492C16.2894 9.18043 16.4769 9.33282 16.6176 9.62003C16.8462 10.0889 16.7583 10.4465 16.307 10.9037C15.9377 11.2788 15.9436 11.4312 16.3304 11.8649C16.6586 12.2166 16.7407 12.3866 16.7407 12.6621C16.7407 12.92 16.5297 13.3303 16.3245 13.4768C16.0139 13.6937 15.7736 13.7288 15.3223 13.6116C14.8006 13.4768 14.6423 13.5413 14.5251 13.9399C14.3141 14.6784 13.9331 15.0301 13.388 14.9773C13.2356 14.9656 13.048 14.9128 12.966 14.8601L12.8195 14.7604L12.9425 14.485C13.1067 14.1157 13.1418 13.5237 13.0246 13.1486C12.9777 12.9903 12.9425 12.8555 12.9484 12.8496C12.9543 12.8438 13.0715 12.8555 13.2063 12.879C13.7514 12.9786 14.3669 12.7324 14.6892 12.287C14.9178 11.9763 14.9178 11.7536 14.6951 11.5308C14.4372 11.2788 14.1383 11.3257 13.8745 11.6598C13.64 11.9646 13.1887 11.9235 13.0129 11.5836C12.837 11.2378 13.1301 10.8333 13.5638 10.8333C13.6811 10.8333 13.8862 10.634 13.9507 10.4582C14.0034 10.3058 13.8862 9.96585 13.7514 9.89552C13.5463 9.78415 13.0891 9.83104 12.7667 9.9893C12.1981 10.2706 11.9109 10.7689 11.9461 11.4253C11.9578 11.6481 11.9637 11.8298 11.9637 11.8298C11.9637 11.7887 11.3072 11.6539 11.1079 11.6539H10.8324L10.8618 11.4253C10.8911 11.2085 10.8735 11.1733 10.598 10.8802C10.1467 10.4055 10.0705 10.0889 10.2991 9.62003C10.4397 9.33282 10.6273 9.18043 10.979 9.07492C11.1841 9.01045 11.2662 9.01631 11.5182 9.09837C12.0809 9.28007 12.2978 9.18043 12.4326 8.67635C12.5264 8.30122 12.6319 8.13124 12.8839 7.94368C13.1711 7.72681 13.3997 7.68578 13.7631 7.78542ZM6.80569 10.4406C6.95808 10.511 7.18082 10.7161 7.25115 10.8451C7.28632 10.9154 7.24529 11.0209 7.09876 11.2436C6.98739 11.4136 6.89361 11.5719 6.89361 11.5953C6.89361 11.6188 6.68846 11.6539 6.44228 11.6656C5.63928 11.7008 5.03556 12.0994 4.68387 12.8145C4.53734 13.1075 4.51976 13.213 4.51976 13.7113C4.51976 14.2271 4.53734 14.3033 4.70732 14.6315L4.89488 14.9949H4.01568C3.53505 14.9949 3.14234 14.9773 3.14234 14.9597C3.14234 14.866 3.30059 14.6432 3.52919 14.4322C3.89845 14.0864 3.88673 13.8754 3.49988 13.4475C3.01339 12.9083 2.97236 12.4452 3.37679 11.9822C3.68158 11.6363 3.81639 11.6129 4.7718 11.7477C5.10589 11.7946 5.28173 11.6422 5.36965 11.226C5.52205 10.5051 6.19611 10.1358 6.80569 10.4406ZM9.21471 11.4722C9.50192 11.6012 9.68362 11.8239 9.77154 12.1463C9.88877 12.5859 9.94738 12.6914 10.0939 12.7617C10.2873 12.8496 10.3753 12.8438 10.7269 12.7324C10.9731 12.6562 11.0728 12.6504 11.272 12.7031C11.7527 12.8321 12.0516 13.2072 12.0516 13.6761C12.0516 14.0161 11.9285 14.2681 11.6296 14.5319C11.4186 14.7136 11.3893 14.7722 11.3893 14.9949C11.3893 15.2176 11.4186 15.2762 11.6296 15.458C11.9285 15.7217 12.0516 15.9738 12.0516 16.3137C12.0516 16.7826 11.7527 17.1577 11.272 17.2867C11.0728 17.3395 10.9731 17.3336 10.7269 17.2574C10.3753 17.146 10.2873 17.1402 10.0939 17.2281C9.94738 17.2984 9.88877 17.4039 9.77154 17.8435C9.68362 18.1659 9.50192 18.3886 9.21471 18.5176C8.90992 18.6583 8.68719 18.6524 8.3824 18.5176C8.07174 18.3769 7.84315 18.078 7.77868 17.7146C7.72006 17.4039 7.50905 17.1636 7.29218 17.1636C7.22771 17.1636 7.03428 17.2046 6.8643 17.2574C6.6064 17.3277 6.5009 17.3336 6.29575 17.2808C5.79753 17.146 5.42827 16.5775 5.53963 16.1086C5.60411 15.8096 5.68031 15.6983 5.94993 15.4521C6.15508 15.2645 6.19025 15.2059 6.19025 14.9949C6.19025 14.7839 6.15508 14.7253 5.94993 14.5377C5.68031 14.2915 5.60411 14.1802 5.53963 13.8812C5.42827 13.4123 5.79753 12.8438 6.29575 12.709C6.5009 12.6562 6.6064 12.6621 6.8643 12.7324C7.03428 12.7852 7.22771 12.8262 7.29218 12.8262C7.50905 12.8262 7.72006 12.5859 7.77868 12.2752C7.84315 11.9118 8.07174 11.6129 8.3824 11.4722C8.68719 11.3374 8.90992 11.3316 9.21471 11.4722ZM4.50217 16.4602C4.57837 17.5094 5.36965 18.2714 6.43056 18.3242C6.87603 18.3476 6.87603 18.3476 6.97567 18.5469C7.11634 18.8517 7.52664 19.2678 7.83729 19.4261C8.37067 19.6957 9.10334 19.7074 9.66604 19.4613C10.0119 19.3089 10.4163 18.9337 10.5863 18.6055L10.7269 18.3476L11.1783 18.3242C11.7585 18.289 12.1747 18.0956 12.5674 17.6677C12.8839 17.316 13.1067 16.765 13.1067 16.3137V16.0499H15.9787H18.8567L18.8215 16.2375C18.7863 16.4485 18.206 21.3955 18.206 21.4952C18.206 21.5245 18.165 21.5948 18.1123 21.6417C18.0361 21.7179 17.8602 21.7355 17.0924 21.7355C16.5824 21.7355 16.096 21.7589 16.008 21.7941C15.9201 21.8293 15.8205 21.9348 15.7677 22.0578C15.6974 22.2337 15.6974 22.2923 15.7677 22.4623C15.8791 22.726 16.0901 22.7905 16.8403 22.7905C17.4089 22.7905 17.4617 22.8022 17.5906 22.9371C17.8133 23.1539 17.8075 23.4529 17.5847 23.658C17.4558 23.7752 17.3737 23.787 16.8697 23.787C16.1194 23.787 15.8732 23.8573 15.7736 24.0976C15.6739 24.3438 15.7208 24.5841 15.9084 24.7248C16.0315 24.8244 16.1428 24.842 16.6938 24.842C17.4206 24.842 17.6316 24.9123 17.7313 25.1937C17.8016 25.4047 17.7489 25.5805 17.5613 25.7505C17.4499 25.8502 17.3268 25.8736 16.7055 25.897C16.0666 25.9205 15.967 25.9439 15.8556 26.0494C15.6798 26.2253 15.6798 26.5535 15.8615 26.7469C15.9904 26.8818 16.0373 26.8935 16.5883 26.8935C17.3093 26.8935 17.4323 26.9228 17.4792 27.1103C17.532 27.3096 17.3913 28.5288 17.2975 28.7164C17.2506 28.7984 17.151 28.8922 17.0631 28.9332C16.8403 29.0329 3.15992 29.0329 2.93719 28.9332C2.70859 28.8277 2.6324 28.6343 2.5562 27.9075C2.47414 27.1631 2.49759 26.9814 2.68515 26.9286C2.76135 26.9111 5.42241 26.8935 8.59927 26.8935H14.3786L14.5075 26.7528C14.6834 26.5652 14.6892 26.2253 14.5192 26.0494L14.3903 25.9264L8.48204 25.897C2.67343 25.8677 2.56792 25.8677 2.43897 25.7505C2.25141 25.5805 2.19866 25.4047 2.26899 25.1937C2.39794 24.8303 2.24555 24.842 6.95222 24.842H11.2369L11.3776 24.6955C11.5827 24.4962 11.5768 24.1504 11.3717 23.9569L11.2193 23.8163L6.85844 23.787C2.59723 23.7576 2.49759 23.7576 2.38622 23.6404C2.19279 23.4411 2.20452 23.1363 2.40967 22.9371L2.55034 22.7905H8.35895C14.783 22.7905 14.5192 22.8081 14.6189 22.4271C14.6892 22.1809 14.5837 21.9055 14.3903 21.8117C14.2789 21.7531 12.8663 21.7355 8.11277 21.7355C2.61481 21.7355 1.97006 21.7238 1.888 21.6417C1.83525 21.5948 1.79422 21.5245 1.79422 21.4952C1.79422 21.3955 1.21395 16.4485 1.17878 16.2375L1.14361 16.0499H2.80824H4.47287L4.50217 16.4602Z" fill="white"/>
<path d="M7.45025 6.34351C6.63553 6.7245 6.31901 7.69163 6.75275 8.48877C7.02824 8.99285 7.49715 9.26247 8.10087 9.26247C8.54047 9.26833 8.90387 9.11594 9.2028 8.80528C9.49587 8.50636 9.54276 8.36568 9.45484 8.09606C9.32589 7.69163 8.85698 7.62129 8.57564 7.95539C8.29429 8.28948 8.05398 8.33638 7.77849 8.10192C7.64368 7.99056 7.59679 7.90263 7.59679 7.76196C7.59679 7.48062 7.73746 7.32822 8.09501 7.22272C8.45841 7.12307 8.59322 6.97068 8.59322 6.68347C8.59322 6.22042 8.05398 6.06217 7.45025 6.34351Z" fill="white"/>
<path d="M8.19466 13.5589C7.63783 13.805 7.24512 14.3912 7.24512 14.9949C7.24512 15.2469 7.28615 15.4111 7.42096 15.6807C7.70817 16.2492 8.14777 16.5189 8.79838 16.5189C9.27315 16.5189 9.61311 16.3723 9.94135 16.0148C10.1289 15.8096 10.1758 15.7159 10.1758 15.5283C10.1758 15.2411 10.0293 15.0594 9.75964 15.0184C9.57208 14.9832 9.51933 15.0125 9.23798 15.2587C8.96836 15.4931 8.90388 15.5283 8.75149 15.499C8.12432 15.3759 8.15363 14.5905 8.79252 14.485C9.23798 14.4146 9.43727 13.9633 9.17351 13.6233C9.068 13.4885 9.00939 13.4709 8.72218 13.4709C8.54048 13.4768 8.30016 13.512 8.19466 13.5589Z" fill="white"/>
<path d="M16.7406 17.2105C16.6233 17.3043 16.594 17.4508 16.4358 18.7462C16.342 19.5374 16.2834 20.2408 16.301 20.3111C16.3889 20.6745 16.893 20.8094 17.145 20.5397C17.2622 20.4108 17.2974 20.2408 17.4498 18.9747C17.6315 17.4625 17.6256 17.2925 17.3795 17.1636C17.2095 17.0698 16.8812 17.0991 16.7406 17.2105Z" fill="white"/>
<path d="M12.8956 23.869C12.6729 23.9686 12.5439 24.2734 12.6319 24.5079C12.7432 24.7892 12.8956 24.842 13.6517 24.842C14.3082 24.842 14.3492 24.8361 14.4841 24.6954C14.7009 24.4844 14.7009 24.1914 14.4782 23.9628C14.3492 23.828 14.2906 23.8162 13.7045 23.7987C13.259 23.7869 13.0246 23.8104 12.8956 23.869Z" fill="white"/>
</svg>
